# xmcd
#
# Track frame offsets:
#	150
#	20554
#	35538
#	49855
#	63937
#	79734
#	89800
#	106569
#	120622
#	135968
#	149585
#
# Disc length: 2140 seconds
# Revision: 0
# Processed by: cddbd v1.5.2PL0 Copyright (c) Steve Scherf et al.
# Submitted via: dBpowerAMP V12.0
#
DISCID=91085a0b
DTITLE=Gayle O'Neil - Rough Road
DYEAR=2015
DGENRE=COuntry
TTITLE0=590 Days
TTITLE1=Breathe In
TTITLE2=Rough Road
TTITLE3=Rabbit in a Cage
TTITLE4=Forever By My Side
TTITLE5=Risks
TTITLE6=Some Days Are Diamonds
TTITLE7=Muse
TTITLE8=My Kinda Heaven
TTITLE9=Lift My Spirits
TTITLE10=Free As A Bird
EXTD=
EXTT0=
EXTT1=
EXTT2=
EXTT3=
EXTT4=
EXTT5=
EXTT6=
EXTT7=
EXTT8=
EXTT9=
EXTT10=
PLAYORDER=
